# xmcd
#
# Track frame offsets:
#	150
#	15995
#	35155
#	55922
#	77147
#	98860
#	127610
#	147772
#	182505
#	202492
#	206427
#	224542
#	245410
#
# Disc length: 3534 seconds
#
# Revision: 0
# Processed by: cddbd v1.4PL0 Copyright (c) Steve Scherf et al.
# Submitted via: EasyCDDAExtractor 4.6.0.1
#
DISCID=b70dcc0d
DTITLE=Lil Fi and The Delta Rhythm Kings
DYEAR=1996
DGENRE=Blues
TTITLE0=Beautiful Music
TTITLE1=Goobledust
TTITLE2=Miss Understood
TTITLE3=Doss House
TTITLE4=Church Of What's Happening Now
TTITLE5=Someday Baby
TTITLE6=Gamblin Man
TTITLE7=Beautiful World
TTITLE8=Pope Joan
TTITLE9=Slide
TTITLE10=On My Way
TTITLE11=The Well
TTITLE12=Alzheimers
EXTD=
EXTT0=
EXTT1=
EXTT2=
EXTT3=
EXTT4=
EXTT5=
EXTT6=
EXTT7=
EXTT8=
EXTT9=
EXTT10=
EXTT11=
EXTT12=
PLAYORDER=
